<svg width="512" height="512" viewBox="0 0 512 512" fill="none" xmlns="http://www.w3.org/2000/svg">
<rect width="512" height="512" fill="#1A202C"/>
<g filter="url(#filter0_d_2_2)">
<path d="M166.281 284.531H115.375V246.422H166.281C173.219 246.422 178.844 245.25 183.156 242.906C187.469 240.562 190.609 237.328 192.578 233.203C194.641 228.984 195.672 224.25 195.672 219C195.672 213.375 194.641 208.172 192.578 203.391C190.609 198.609 187.469 194.766 183.156 191.859C178.844 188.859 173.219 187.359 166.281 187.359H133.938V354H84.5781V149.25H166.281C182.688 149.25 196.797 152.25 208.609 158.25C220.516 164.25 229.656 172.5 236.031 183C242.406 193.406 245.594 205.312 245.594 218.719C245.594 231.938 242.406 243.469 236.031 253.312C229.656 263.156 220.516 270.844 208.609 276.375C196.797 281.812 182.688 284.531 166.281 284.531ZM338.688 354H293.266L293.547 316.031H338.688C348.062 316.031 355.984 313.781 362.453 309.281C369.016 304.781 373.984 298.078 377.359 289.172C380.828 280.172 382.562 269.109 382.562 255.984V247.125C382.562 237.281 381.578 228.656 379.609 221.25C377.734 213.75 374.922 207.516 371.172 202.547C367.422 197.484 362.734 193.688 357.109 191.156C351.578 188.625 345.203 187.359 337.984 187.359H292.422V149.25H337.984C351.859 149.25 364.562 151.641 376.094 156.422C387.719 161.109 397.75 167.859 406.188 176.672C414.719 185.391 421.281 195.75 425.875 207.75C430.562 219.656 432.906 232.875 432.906 247.406V255.984C432.906 270.422 430.562 283.641 425.875 295.641C421.281 307.641 414.766 318 406.328 326.719C397.891 335.438 387.906 342.188 376.375 346.969C364.938 351.656 352.375 354 338.688 354ZM321.531 149.25V354H272.172V149.25H321.531Z" fill="url(#paint0_radial_2_2)"/>
</g>
<defs>
<filter id="filter0_d_2_2" x="69.5781" y="139.25" width="388.328" height="244.75" filterUnits="userSpaceOnUse" color-interpolation-filters="sRGB">
<feFlood flood-opacity="0" result="BackgroundImageFix"/>
<feColorMatrix in="SourceAlpha" type="matrix" values="0 0 0 0 0 0 0 0 0 0 0 0 0 0 0 0 0 0 127 0" result="hardAlpha"/>
<feOffset dx="5" dy="10"/>
<feGaussianBlur stdDeviation="10"/>
<feComposite in2="hardAlpha" operator="out"/>
<feColorMatrix type="matrix" values="0 0 0 0 1 0 0 0 0 1 0 0 0 0 1 0 0 0 0.1 0"/>
<feBlend mode="normal" in2="BackgroundImageFix" result="effect1_dropShadow_2_2"/>
<feBlend mode="normal" in="SourceGraphic" in2="effect1_dropShadow_2_2" result="shape"/>
</filter>
<radialGradient id="paint0_radial_2_2" cx="0" cy="0" r="1" gradientUnits="userSpaceOnUse" gradientTransform="translate(256 256) rotate(90) scale(256)">
<stop stop-color="#319795"/>
<stop offset="1" stop-color="#B2F5EA"/>
</radialGradient>
</defs>
</svg>
